<mxfile host="" modified="2020-05-24T15:21:41.060Z" agent="5.0 (X11; Linux x86_64) AppleWebKit/537.36 (KHTML, like Gecko) Code/1.45.0 Chrome/78.0.3904.130 Electron/7.2.4 Safari/537.36" version="13.1.3" etag="lrwgP8mNOWNbAz78NI_h" pages="2">
            <diagram id="diagramid" name="Diagram">
              <mxGraphModel><root><mxCell id="0"/><mxCell id="1" parent="0"/><mxCell id="2" value="VPC" style="outlineConnect=0;fontColor=#B3B3B3;gradientColor=#945DF2;gradientDirection=north;fillColor=#5A30B5;strokeColor=#ffffff;dashed=0;verticalLabelPosition=bottom;verticalAlign=top;align=center;html=1;fontSize=12;fontStyle=0;aspect=fixed;shape=mxgraph.aws4.resourceIcon;resIcon=mxgraph.aws4.vpc;" vertex="1" parent="1"><mxGeometry x="250" y="150" width="50" height="50" as="geometry"/></mxCell><mxCell id="3" value="InternetGateway" style="outlineConnect=0;fontColor=#B3B3B3;gradientColor=#F78E04;gradientDirection=north;fillColor=#D05C17;strokeColor=#ffffff;dashed=0;verticalLabelPosition=bottom;verticalAlign=top;align=center;html=1;fontSize=12;fontStyle=0;aspect=fixed;shape=mxgraph.aws4.resourceIcon;resIcon=mxgraph.aws4.ec2;" vertex="1" parent="1"><mxGeometry x="250" width="50" height="50" as="geometry"/></mxCell><mxCell id="4" value="InternetGatewayAttachment" style="outlineConnect=0;fontColor=#B3B3B3;gradientColor=#F78E04;gradientDirection=north;fillColor=#D05C17;strokeColor=#ffffff;dashed=0;verticalLabelPosition=bottom;verticalAlign=top;align=center;html=1;fontSize=12;fontStyle=0;aspect=fixed;shape=mxgraph.aws4.resourceIcon;resIcon=mxgraph.aws4.ec2;" vertex="1" parent="1"><mxGeometry width="50" height="50" as="geometry"/></mxCell><mxCell id="5" value="PublicSubnet1" style="outlineConnect=0;fontColor=#B3B3B3;gradientColor=#F78E04;gradientDirection=north;fillColor=#D05C17;strokeColor=#ffffff;dashed=0;verticalLabelPosition=bottom;verticalAlign=top;align=center;html=1;fontSize=12;fontStyle=0;aspect=fixed;shape=mxgraph.aws4.resourceIcon;resIcon=mxgraph.aws4.ec2;" vertex="1" parent="1"><mxGeometry y="100" width="50" height="50" as="geometry"/></mxCell><mxCell id="6" value="PrivateSubnet1" style="outlineConnect=0;fontColor=#B3B3B3;gradientColor=#F78E04;gradientDirection=north;fillColor=#D05C17;strokeColor=#ffffff;dashed=0;verticalLabelPosition=bottom;verticalAlign=top;align=center;html=1;fontSize=12;fontStyle=0;aspect=fixed;shape=mxgraph.aws4.resourceIcon;resIcon=mxgraph.aws4.ec2;" vertex="1" parent="1"><mxGeometry y="200" width="50" height="50" as="geometry"/></mxCell><mxCell id="7" value="PrivateSubnet2" style="outlineConnect=0;fontColor=#B3B3B3;gradientColor=#F78E04;gradientDirection=north;fillColor=#D05C17;strokeColor=#ffffff;dashed=0;verticalLabelPosition=bottom;verticalAlign=top;align=center;html=1;fontSize=12;fontStyle=0;aspect=fixed;shape=mxgraph.aws4.resourceIcon;resIcon=mxgraph.aws4.ec2;" vertex="1" parent="1"><mxGeometry y="300" width="50" height="50" as="geometry"/></mxCell><mxCell id="InternetGateway|InternetGatewayAttachment" value="" style="edgeStyle=orthogonalEdgeStyle;rounded=1;orthogonalLoop=1;jettySize=auto;html=1;labelBackgroundColor=none;fontColor=#EA6B66;noEdgeStyle=1;orthogonal=1;" edge="1" parent="1" source="4" target="3"><mxGeometry relative="1" as="geometry"><Array as="points"><mxPoint x="62" y="15"/><mxPoint x="238" y="25"/></Array></mxGeometry></mxCell><mxCell id="VPC|InternetGatewayAttachment" value="" style="edgeStyle=orthogonalEdgeStyle;rounded=1;orthogonalLoop=1;jettySize=auto;html=1;labelBackgroundColor=none;fontColor=#EA6B66;noEdgeStyle=1;orthogonal=1;" edge="1" parent="1" source="4" target="2"><mxGeometry relative="1" as="geometry"><Array as="points"><mxPoint x="62" y="35"/><mxPoint x="238" y="160"/></Array></mxGeometry></mxCell><mxCell id="VPC|PublicSubnet1" value="" style="edgeStyle=orthogonalEdgeStyle;rounded=1;orthogonalLoop=1;jettySize=auto;html=1;labelBackgroundColor=none;fontColor=#EA6B66;noEdgeStyle=1;orthogonal=1;" edge="1" parent="1" source="5" target="2"><mxGeometry relative="1" as="geometry"><Array as="points"><mxPoint x="62" y="125"/><mxPoint x="236" y="170"/></Array></mxGeometry></mxCell><mxCell id="VPC|PrivateSubnet1" value="" style="edgeStyle=orthogonalEdgeStyle;rounded=1;orthogonalLoop=1;jettySize=auto;html=1;labelBackgroundColor=none;fontColor=#EA6B66;noEdgeStyle=1;orthogonal=1;" edge="1" parent="1" source="6" target="2"><mxGeometry relative="1" as="geometry"><Array as="points"><mxPoint x="62" y="225"/><mxPoint x="236" y="180"/></Array></mxGeometry></mxCell><mxCell id="VPC|PrivateSubnet2" value="" style="edgeStyle=orthogonalEdgeStyle;rounded=1;orthogonalLoop=1;jettySize=auto;html=1;labelBackgroundColor=none;fontColor=#EA6B66;noEdgeStyle=1;orthogonal=1;" edge="1" parent="1" source="7" target="2"><mxGeometry relative="1" as="geometry"><Array as="points"><mxPoint x="62" y="325"/><mxPoint x="238" y="190"/></Array></mxGeometry></mxCell><mxCell id="8" value="NetworkStack" style="outlineConnect=0;fontColor=#B3B3B3;gradientColor=#F34482;gradientDirection=north;fillColor=#BC1356;strokeColor=#ffffff;dashed=0;verticalLabelPosition=bottom;verticalAlign=top;align=center;html=1;fontSize=12;fontStyle=0;aspect=fixed;shape=mxgraph.aws4.resourceIcon;resIcon=mxgraph.aws4.cloudformation;" vertex="1" parent="1"><mxGeometry x="750" y="3300" width="50" height="50" as="geometry"/></mxCell><mxCell id="9" value="FleetTable" style="outlineConnect=0;fontColor=#B3B3B3;gradientColor=#4D72F3;gradientDirection=north;fillColor=#3334B9;strokeColor=#ffffff;dashed=0;verticalLabelPosition=bottom;verticalAlign=top;align=center;html=1;fontSize=12;fontStyle=0;aspect=fixed;shape=mxgraph.aws4.resourceIcon;resIcon=mxgraph.aws4.dynamodb;" vertex="1" parent="1"><mxGeometry y="3550" width="50" height="50" as="geometry"/></mxCell><mxCell id="10" value="TripTable" style="outlineConnect=0;fontColor=#B3B3B3;gradientColor=#4D72F3;gradientDirection=north;fillColor=#3334B9;strokeColor=#ffffff;dashed=0;verticalLabelPosition=bottom;verticalAlign=top;align=center;html=1;fontSize=12;fontStyle=0;aspect=fixed;shape=mxgraph.aws4.resourceIcon;resIcon=mxgraph.aws4.dynamodb;" vertex="1" parent="1"><mxGeometry y="3700" width="50" height="50" as="geometry"/></mxCell><mxCell id="11" value="DocumentDBCluster" style="outlineConnect=0;fontColor=#B3B3B3;gradientColor=#aaaaaa;gradientDirection=north;fillColor=#aaaaaa;strokeColor=#ffffff;dashed=0;verticalLabelPosition=bottom;verticalAlign=top;align=center;html=1;fontSize=12;fontStyle=0;aspect=fixed;shape=mxgraph.aws4.resourceIcon;resIcon=mxgraph.aws4.docdb;" vertex="1" parent="1"><mxGeometry x="250" y="500" width="50" height="50" as="geometry"/></mxCell><mxCell id="12" value="DocumentDBInstance" style="outlineConnect=0;fontColor=#B3B3B3;gradientColor=#aaaaaa;gradientDirection=north;fillColor=#aaaaaa;strokeColor=#ffffff;dashed=0;verticalLabelPosition=bottom;verticalAlign=top;align=center;html=1;fontSize=12;fontStyle=0;aspect=fixed;shape=mxgraph.aws4.resourceIcon;resIcon=mxgraph.aws4.docdb;" vertex="1" parent="1"><mxGeometry y="500" width="50" height="50" as="geometry"/></mxCell><mxCell id="13" value="DocumentDBSubnetGroup" style="outlineConnect=0;fontColor=#B3B3B3;gradientColor=#aaaaaa;gradientDirection=north;fillColor=#aaaaaa;strokeColor=#ffffff;dashed=0;verticalLabelPosition=bottom;verticalAlign=top;align=center;html=1;fontSize=12;fontStyle=0;aspect=fixed;shape=mxgraph.aws4.resourceIcon;resIcon=mxgraph.aws4.docdb;" vertex="1" parent="1"><mxGeometry x="500" y="550" width="50" height="50" as="geometry"/></mxCell><mxCell id="14" value="DocumentDBSecurityGroup" style="outlineConnect=0;fontColor=#B3B3B3;gradientColor=#F78E04;gradientDirection=north;fillColor=#D05C17;strokeColor=#ffffff;dashed=0;verticalLabelPosition=bottom;verticalAlign=top;align=center;html=1;fontSize=12;fontStyle=0;aspect=fixed;shape=mxgraph.aws4.resourceIcon;resIcon=mxgraph.aws4.ec2;" vertex="1" parent="1"><mxGeometry x="500" y="450" width="50" height="50" as="geometry"/></mxCell><mxCell id="15" value="LambdaSecurityGroup" style="outlineConnect=0;fontColor=#B3B3B3;gradientColor=#F78E04;gradientDirection=north;fillColor=#D05C17;strokeColor=#ffffff;dashed=0;verticalLabelPosition=bottom;verticalAlign=top;align=center;html=1;fontSize=12;fontStyle=0;aspect=fixed;shape=mxgraph.aws4.resourceIcon;resIcon=mxgraph.aws4.ec2;" vertex="1" parent="1"><mxGeometry x="750" y="450" width="50" height="50" as="geometry"/></mxCell><mxCell id="DocumentDBSecurityGroup|DocumentDBCluster" value="" style="edgeStyle=orthogonalEdgeStyle;rounded=1;orthogonalLoop=1;jettySize=auto;html=1;labelBackgroundColor=none;fontColor=#EA6B66;noEdgeStyle=1;orthogonal=1;" edge="1" parent="1" source="11" target="14"><mxGeometry relative="1" as="geometry"><Array as="points"><mxPoint x="312" y="515"/><mxPoint x="488" y="475"/></Array></mxGeometry></mxCell><mxCell id="DocumentDBSubnetGroup|DocumentDBCluster" value="" style="edgeStyle=orthogonalEdgeStyle;rounded=1;orthogonalLoop=1;jettySize=auto;html=1;labelBackgroundColor=none;fontColor=#EA6B66;noEdgeStyle=1;orthogonal=1;" edge="1" parent="1" source="11" target="13"><mxGeometry relative="1" as="geometry"><Array as="points"><mxPoint x="312" y="535"/><mxPoint x="488" y="575"/></Array></mxGeometry></mxCell><mxCell id="DocumentDBCluster|DocumentDBInstance" value="" style="edgeStyle=orthogonalEdgeStyle;rounded=1;orthogonalLoop=1;jettySize=auto;html=1;labelBackgroundColor=none;fontColor=#EA6B66;noEdgeStyle=1;orthogonal=1;" edge="1" parent="1" source="12" target="11"><mxGeometry relative="1" as="geometry"><Array as="points"><mxPoint x="62" y="525"/><mxPoint x="238" y="525"/></Array></mxGeometry></mxCell><mxCell id="LambdaSecurityGroup|DocumentDBSecurityGroup" value="" style="edgeStyle=orthogonalEdgeStyle;rounded=1;orthogonalLoop=1;jettySize=auto;html=1;labelBackgroundColor=none;fontColor=#EA6B66;noEdgeStyle=1;orthogonal=1;" edge="1" parent="1" source="14" target="15"><mxGeometry relative="1" as="geometry"><Array as="points"><mxPoint x="562" y="475"/><mxPoint x="738" y="475"/></Array></mxGeometry></mxCell><mxCell id="16" value="DatabaseStack" style="outlineConnect=0;fontColor=#B3B3B3;gradientColor=#F34482;gradientDirection=north;fillColor=#BC1356;strokeColor=#ffffff;dashed=0;verticalLabelPosition=bottom;verticalAlign=top;align=center;html=1;fontSize=12;fontStyle=0;aspect=fixed;shape=mxgraph.aws4.resourceIcon;resIcon=mxgraph.aws4.cloudformation;" vertex="1" parent="1"><mxGeometry x="500" y="3300" width="50" height="50" as="geometry"/></mxCell><mxCell id="17" value="RedisSubnetGroup" style="outlineConnect=0;fontColor=#B3B3B3;gradientColor=#4D72F3;gradientDirection=north;fillColor=#3334B9;strokeColor=#ffffff;dashed=0;verticalLabelPosition=bottom;verticalAlign=top;align=center;html=1;fontSize=12;fontStyle=0;aspect=fixed;shape=mxgraph.aws4.resourceIcon;resIcon=mxgraph.aws4.elasticache;" vertex="1" parent="1"><mxGeometry x="250" y="700" width="50" height="50" as="geometry"/></mxCell><mxCell id="18" value="RedisSecurityGroup" style="outlineConnect=0;fontColor=#B3B3B3;gradientColor=#F78E04;gradientDirection=north;fillColor=#D05C17;strokeColor=#ffffff;dashed=0;verticalLabelPosition=bottom;verticalAlign=top;align=center;html=1;fontSize=12;fontStyle=0;aspect=fixed;shape=mxgraph.aws4.resourceIcon;resIcon=mxgraph.aws4.ec2;" vertex="1" parent="1"><mxGeometry x="250" y="800" width="50" height="50" as="geometry"/></mxCell><mxCell id="19" value="RedisCluster" style="outlineConnect=0;fontColor=#B3B3B3;gradientColor=#4D72F3;gradientDirection=north;fillColor=#3334B9;strokeColor=#ffffff;dashed=0;verticalLabelPosition=bottom;verticalAlign=top;align=center;html=1;fontSize=12;fontStyle=0;aspect=fixed;shape=mxgraph.aws4.resourceIcon;resIcon=mxgraph.aws4.elasticache;" vertex="1" parent="1"><mxGeometry y="750" width="50" height="50" as="geometry"/></mxCell><mxCell id="20" value="LambdaSecurityGroup" style="outlineConnect=0;fontColor=#B3B3B3;gradientColor=#F78E04;gradientDirection=north;fillColor=#D05C17;strokeColor=#ffffff;dashed=0;verticalLabelPosition=bottom;verticalAlign=top;align=center;html=1;fontSize=12;fontStyle=0;aspect=fixed;shape=mxgraph.aws4.resourceIcon;resIcon=mxgraph.aws4.ec2;" vertex="1" parent="1"><mxGeometry x="500" y="800" width="50" height="50" as="geometry"/></mxCell><mxCell id="LambdaSecurityGroup|RedisSecurityGroup" value="" style="edgeStyle=orthogonalEdgeStyle;rounded=1;orthogonalLoop=1;jettySize=auto;html=1;labelBackgroundColor=none;fontColor=#EA6B66;noEdgeStyle=1;orthogonal=1;" edge="1" parent="1" source="18" target="20"><mxGeometry relative="1" as="geometry"><Array as="points"><mxPoint x="312" y="825"/><mxPoint x="488" y="825"/></Array></mxGeometry></mxCell><mxCell id="RedisSubnetGroup|RedisCluster" value="" style="edgeStyle=orthogonalEdgeStyle;rounded=1;orthogonalLoop=1;jettySize=auto;html=1;labelBackgroundColor=none;fontColor=#EA6B66;noEdgeStyle=1;orthogonal=1;" edge="1" parent="1" source="19" target="17"><mxGeometry relative="1" as="geometry"><Array as="points"><mxPoint x="62" y="765"/><mxPoint x="238" y="725"/></Array></mxGeometry></mxCell><mxCell id="RedisSecurityGroup|RedisCluster" value="" style="edgeStyle=orthogonalEdgeStyle;rounded=1;orthogonalLoop=1;jettySize=auto;html=1;labelBackgroundColor=none;fontColor=#EA6B66;noEdgeStyle=1;orthogonal=1;" edge="1" parent="1" source="19" target="18"><mxGeometry relative="1" as="geometry"><Array as="points"><mxPoint x="62" y="785"/><mxPoint x="238" y="825"/></Array></mxGeometry></mxCell><mxCell id="21" value="CacheStack" style="outlineConnect=0;fontColor=#B3B3B3;gradientColor=#F34482;gradientDirection=north;fillColor=#BC1356;strokeColor=#ffffff;dashed=0;verticalLabelPosition=bottom;verticalAlign=top;align=center;html=1;fontSize=12;fontStyle=0;aspect=fixed;shape=mxgraph.aws4.resourceIcon;resIcon=mxgraph.aws4.cloudformation;" vertex="1" parent="1"><mxGeometry x="500" y="3400" width="50" height="50" as="geometry"/></mxCell><mxCell id="22" value="LambdaExecutionRole" style="outlineConnect=0;fontColor=#B3B3B3;gradientColor=#F54749;gradientDirection=north;fillColor=#C7131F;strokeColor=#ffffff;dashed=0;verticalLabelPosition=bottom;verticalAlign=top;align=center;html=1;fontSize=12;fontStyle=0;aspect=fixed;shape=mxgraph.aws4.resourceIcon;resIcon=mxgraph.aws4.role;" vertex="1" parent="1"><mxGeometry y="3850" width="50" height="50" as="geometry"/></mxCell><mxCell id="23" value="LambdaStack" style="outlineConnect=0;fontColor=#B3B3B3;gradientColor=#F34482;gradientDirection=north;fillColor=#BC1356;strokeColor=#ffffff;dashed=0;verticalLabelPosition=bottom;verticalAlign=top;align=center;html=1;fontSize=12;fontStyle=0;aspect=fixed;shape=mxgraph.aws4.resourceIcon;resIcon=mxgraph.aws4.cloudformation;" vertex="1" parent="1"><mxGeometry x="250" y="3075" width="50" height="50" as="geometry"/></mxCell><mxCell id="24" value="CognitoUserPool" style="outlineConnect=0;fontColor=#B3B3B3;gradientColor=#F54749;gradientDirection=north;fillColor=#C7131F;strokeColor=#ffffff;dashed=0;verticalLabelPosition=bottom;verticalAlign=top;align=center;html=1;fontSize=12;fontStyle=0;aspect=fixed;shape=mxgraph.aws4.resourceIcon;resIcon=mxgraph.aws4.cognito;" vertex="1" parent="1"><mxGeometry x="500" y="1100" width="50" height="50" as="geometry"/></mxCell><mxCell id="25" value="CognitoUserPoolClientWeb" style="outlineConnect=0;fontColor=#B3B3B3;gradientColor=#F54749;gradientDirection=north;fillColor=#C7131F;strokeColor=#ffffff;dashed=0;verticalLabelPosition=bottom;verticalAlign=top;align=center;html=1;fontSize=12;fontStyle=0;aspect=fixed;shape=mxgraph.aws4.resourceIcon;resIcon=mxgraph.aws4.cognito;" vertex="1" parent="1"><mxGeometry x="250" y="950" width="50" height="50" as="geometry"/></mxCell><mxCell id="26" value="CognitoUserPoolClientMobile" style="outlineConnect=0;fontColor=#B3B3B3;gradientColor=#F54749;gradientDirection=north;fillColor=#C7131F;strokeColor=#ffffff;dashed=0;verticalLabelPosition=bottom;verticalAlign=top;align=center;html=1;fontSize=12;fontStyle=0;aspect=fixed;shape=mxgraph.aws4.resourceIcon;resIcon=mxgraph.aws4.cognito;" vertex="1" parent="1"><mxGeometry x="250" y="1050" width="50" height="50" as="geometry"/></mxCell><mxCell id="27" value="CognitoUserPoolDomain" style="outlineConnect=0;fontColor=#B3B3B3;gradientColor=#F54749;gradientDirection=north;fillColor=#C7131F;strokeColor=#ffffff;dashed=0;verticalLabelPosition=bottom;verticalAlign=top;align=center;html=1;fontSize=12;fontStyle=0;aspect=fixed;shape=mxgraph.aws4.resourceIcon;resIcon=mxgraph.aws4.cognito;" vertex="1" parent="1"><mxGeometry x="250" y="1150" width="50" height="50" as="geometry"/></mxCell><mxCell id="28" value="ApiGateway" style="outlineConnect=0;fontColor=#B3B3B3;gradientColor=#945DF2;gradientDirection=north;fillColor=#5A30B5;strokeColor=#ffffff;dashed=0;verticalLabelPosition=bottom;verticalAlign=top;align=center;html=1;fontSize=12;fontStyle=0;aspect=fixed;shape=mxgraph.aws4.resourceIcon;resIcon=mxgraph.aws4.api_gateway;" vertex="1" parent="1"><mxGeometry x="500" y="1662.5" width="50" height="50" as="geometry"/></mxCell><mxCell id="29" value="ApiGatewayAuthorizer" style="outlineConnect=0;fontColor=#B3B3B3;gradientColor=#aaaaaa;gradientDirection=north;fillColor=#aaaaaa;strokeColor=#ffffff;dashed=0;verticalLabelPosition=bottom;verticalAlign=top;align=center;html=1;fontSize=12;fontStyle=0;aspect=fixed;shape=mxgraph.aws4.resourceIcon;resIcon=mxgraph.aws4.apigateway;" vertex="1" parent="1"><mxGeometry x="250" y="1550" width="50" height="50" as="geometry"/></mxCell><mxCell id="30" value="UserProfileResource" style="outlineConnect=0;fontColor=#B3B3B3;gradientColor=#945DF2;gradientDirection=north;fillColor=#5A30B5;strokeColor=#ffffff;dashed=0;verticalLabelPosition=bottom;verticalAlign=top;align=center;html=1;fontSize=12;fontStyle=0;aspect=fixed;shape=mxgraph.aws4.resourceIcon;resIcon=mxgraph.aws4.api_gateway;" vertex="1" parent="1"><mxGeometry x="250" y="1300" width="50" height="50" as="geometry"/></mxCell><mxCell id="31" value="UserProfileMethod" style="outlineConnect=0;fontColor=#B3B3B3;gradientColor=#945DF2;gradientDirection=north;fillColor=#5A30B5;strokeColor=#ffffff;dashed=0;verticalLabelPosition=bottom;verticalAlign=top;align=center;html=1;fontSize=12;fontStyle=0;aspect=fixed;shape=mxgraph.aws4.resourceIcon;resIcon=mxgraph.aws4.api_gateway;" vertex="1" parent="1"><mxGeometry y="1300" width="50" height="50" as="geometry"/></mxCell><mxCell id="32" value="SearchResource" style="outlineConnect=0;fontColor=#B3B3B3;gradientColor=#945DF2;gradientDirection=north;fillColor=#5A30B5;strokeColor=#ffffff;dashed=0;verticalLabelPosition=bottom;verticalAlign=top;align=center;html=1;fontSize=12;fontStyle=0;aspect=fixed;shape=mxgraph.aws4.resourceIcon;resIcon=mxgraph.aws4.api_gateway;" vertex="1" parent="1"><mxGeometry x="250" y="1450" width="50" height="50" as="geometry"/></mxCell><mxCell id="33" value="SearchMethod" style="outlineConnect=0;fontColor=#B3B3B3;gradientColor=#945DF2;gradientDirection=north;fillColor=#5A30B5;strokeColor=#ffffff;dashed=0;verticalLabelPosition=bottom;verticalAlign=top;align=center;html=1;fontSize=12;fontStyle=0;aspect=fixed;shape=mxgraph.aws4.resourceIcon;resIcon=mxgraph.aws4.api_gateway;" vertex="1" parent="1"><mxGeometry y="1425" width="50" height="50" as="geometry"/></mxCell><mxCell id="34" value="StartTripResource" style="outlineConnect=0;fontColor=#B3B3B3;gradientColor=#945DF2;gradientDirection=north;fillColor=#5A30B5;strokeColor=#ffffff;dashed=0;verticalLabelPosition=bottom;verticalAlign=top;align=center;html=1;fontSize=12;fontStyle=0;aspect=fixed;shape=mxgraph.aws4.resourceIcon;resIcon=mxgraph.aws4.api_gateway;" vertex="1" parent="1"><mxGeometry x="250" y="1700" width="50" height="50" as="geometry"/></mxCell><mxCell id="35" value="StartTripMethod" style="outlineConnect=0;fontColor=#B3B3B3;gradientColor=#945DF2;gradientDirection=north;fillColor=#5A30B5;strokeColor=#ffffff;dashed=0;verticalLabelPosition=bottom;verticalAlign=top;align=center;html=1;fontSize=12;fontStyle=0;aspect=fixed;shape=mxgraph.aws4.resourceIcon;resIcon=mxgraph.aws4.api_gateway;" vertex="1" parent="1"><mxGeometry y="1525" width="50" height="50" as="geometry"/></mxCell><mxCell id="36" value="EndTripResource" style="outlineConnect=0;fontColor=#B3B3B3;gradientColor=#945DF2;gradientDirection=north;fillColor=#5A30B5;strokeColor=#ffffff;dashed=0;verticalLabelPosition=bottom;verticalAlign=top;align=center;html=1;fontSize=12;fontStyle=0;aspect=fixed;shape=mxgraph.aws4.resourceIcon;resIcon=mxgraph.aws4.api_gateway;" vertex="1" parent="1"><mxGeometry x="250" y="1850" width="50" height="50" as="geometry"/></mxCell><mxCell id="37" value="EndTripMethod" style="outlineConnect=0;fontColor=#B3B3B3;gradientColor=#945DF2;gradientDirection=north;fillColor=#5A30B5;strokeColor=#ffffff;dashed=0;verticalLabelPosition=bottom;verticalAlign=top;align=center;html=1;fontSize=12;fontStyle=0;aspect=fixed;shape=mxgraph.aws4.resourceIcon;resIcon=mxgraph.aws4.api_gateway;" vertex="1" parent="1"><mxGeometry y="1625" width="50" height="50" as="geometry"/></mxCell><mxCell id="38" value="LeaderboardResource" style="outlineConnect=0;fontColor=#B3B3B3;gradientColor=#945DF2;gradientDirection=north;fillColor=#5A30B5;strokeColor=#ffffff;dashed=0;verticalLabelPosition=bottom;verticalAlign=top;align=center;html=1;fontSize=12;fontStyle=0;aspect=fixed;shape=mxgraph.aws4.resourceIcon;resIcon=mxgraph.aws4.api_gateway;" vertex="1" parent="1"><mxGeometry x="250" y="2000" width="50" height="50" as="geometry"/></mxCell><mxCell id="39" value="LeaderboardMethod" style="outlineConnect=0;fontColor=#B3B3B3;gradientColor=#945DF2;gradientDirection=north;fillColor=#5A30B5;strokeColor=#ffffff;dashed=0;verticalLabelPosition=bottom;verticalAlign=top;align=center;html=1;fontSize=12;fontStyle=0;aspect=fixed;shape=mxgraph.aws4.resourceIcon;resIcon=mxgraph.aws4.api_gateway;" vertex="1" parent="1"><mxGeometry y="1925" width="50" height="50" as="geometry"/></mxCell><mxCell id="40" value="ApiGatewayDeployment" style="outlineConnect=0;fontColor=#B3B3B3;gradientColor=#945DF2;gradientDirection=north;fillColor=#5A30B5;strokeColor=#ffffff;dashed=0;verticalLabelPosition=bottom;verticalAlign=top;align=center;html=1;fontSize=12;fontStyle=0;aspect=fixed;shape=mxgraph.aws4.resourceIcon;resIcon=mxgraph.aws4.api_gateway;" vertex="1" parent="1"><mxGeometry x="250" y="2100" width="50" height="50" as="geometry"/></mxCell><mxCell id="CognitoUserPool|CognitoUserPoolClientWeb" value="" style="edgeStyle=orthogonalEdgeStyle;rounded=1;orthogonalLoop=1;jettySize=auto;html=1;labelBackgroundColor=none;fontColor=#EA6B66;noEdgeStyle=1;orthogonal=1;" edge="1" parent="1" source="25" target="24"><mxGeometry relative="1" as="geometry"><Array as="points"><mxPoint x="312" y="975"/><mxPoint x="488" y="1110"/></Array></mxGeometry></mxCell><mxCell id="CognitoUserPool|CognitoUserPoolClientMobile" value="" style="edgeStyle=orthogonalEdgeStyle;rounded=1;orthogonalLoop=1;jettySize=auto;html=1;labelBackgroundColor=none;fontColor=#EA6B66;noEdgeStyle=1;orthogonal=1;" edge="1" parent="1" source="26" target="24"><mxGeometry relative="1" as="geometry"><Array as="points"><mxPoint x="312" y="1075"/><mxPoint x="486" y="1120"/></Array></mxGeometry></mxCell><mxCell id="CognitoUserPool|CognitoUserPoolDomain" value="" style="edgeStyle=orthogonalEdgeStyle;rounded=1;orthogonalLoop=1;jettySize=auto;html=1;labelBackgroundColor=none;fontColor=#EA6B66;noEdgeStyle=1;orthogonal=1;" edge="1" parent="1" source="27" target="24"><mxGeometry relative="1" as="geometry"><Array as="points"><mxPoint x="312" y="1175"/><mxPoint x="486" y="1130"/></Array></mxGeometry></mxCell><mxCell id="ApiGateway|ApiGatewayAuthorizer" value="" style="edgeStyle=orthogonalEdgeStyle;rounded=1;orthogonalLoop=1;jettySize=auto;html=1;labelBackgroundColor=none;fontColor=#EA6B66;noEdgeStyle=1;orthogonal=1;" edge="1" parent="1" source="29" target="28"><mxGeometry relative="1" as="geometry"><Array as="points"><mxPoint x="312" y="1585"/><mxPoint x="480" y="1681.2500000000002"/></Array></mxGeometry></mxCell><mxCell id="CognitoUserPool|ApiGatewayAuthorizer" value="" style="edgeStyle=orthogonalEdgeStyle;rounded=1;orthogonalLoop=1;jettySize=auto;html=1;labelBackgroundColor=none;fontColor=#EA6B66;noEdgeStyle=1;orthogonal=1;" edge="1" parent="1" source="29" target="24"><mxGeometry relative="1" as="geometry"><Array as="points"><mxPoint x="312" y="1565"/><mxPoint x="488" y="1140"/></Array></mxGeometry></mxCell><mxCell id="ApiGateway|UserProfileResource" value="" style="edgeStyle=orthogonalEdgeStyle;rounded=1;orthogonalLoop=1;jettySize=auto;html=1;labelBackgroundColor=none;fontColor=#EA6B66;noEdgeStyle=1;orthogonal=1;" edge="1" parent="1" source="30" target="28"><mxGeometry relative="1" as="geometry"><Array as="points"><mxPoint x="312" y="1325"/><mxPoint x="486" y="1668.75"/></Array></mxGeometry></mxCell><mxCell id="ApiGateway|UserProfileMethod" value="" style="edgeStyle=orthogonalEdgeStyle;rounded=1;orthogonalLoop=1;jettySize=auto;html=1;labelBackgroundColor=none;fontColor=#EA6B66;noEdgeStyle=1;orthogonal=1;" edge="1" parent="1" source="31" target="28"><mxGeometry relative="1" as="geometry"><Array as="points"><mxPoint x="62" y="1311.6666666666667"/><mxPoint x="150" y="1250"/><mxPoint x="400" y="1250"/><mxPoint x="488" y="1664.5833333333333"/></Array></mxGeometry></mxCell><mxCell id="UserProfileResource|UserProfileMethod" value="" style="edgeStyle=orthogonalEdgeStyle;rounded=1;orthogonalLoop=1;jettySize=auto;html=1;labelBackgroundColor=none;fontColor=#EA6B66;noEdgeStyle=1;orthogonal=1;" edge="1" parent="1" source="31" target="30"><mxGeometry relative="1" as="geometry"><Array as="points"><mxPoint x="64" y="1325"/><mxPoint x="238" y="1325"/></Array></mxGeometry></mxCell><mxCell id="ApiGatewayAuthorizer|UserProfileMethod" value="" style="edgeStyle=orthogonalEdgeStyle;rounded=1;orthogonalLoop=1;jettySize=auto;html=1;labelBackgroundColor=none;fontColor=#EA6B66;noEdgeStyle=1;orthogonal=1;" edge="1" parent="1" source="31" target="29"><mxGeometry relative="1" as="geometry"><Array as="points"><mxPoint x="62" y="1338.3333333333333"/><mxPoint x="238" y="1559"/></Array></mxGeometry></mxCell><mxCell id="ApiGateway|SearchResource" value="" style="edgeStyle=orthogonalEdgeStyle;rounded=1;orthogonalLoop=1;jettySize=auto;html=1;labelBackgroundColor=none;fontColor=#EA6B66;noEdgeStyle=1;orthogonal=1;" edge="1" parent="1" source="32" target="28"><mxGeometry relative="1" as="geometry"><Array as="points"><mxPoint x="312" y="1475"/><mxPoint x="482" y="1677.0833333333335"/></Array></mxGeometry></mxCell><mxCell id="ApiGateway|SearchMethod" value="" style="edgeStyle=orthogonalEdgeStyle;rounded=1;orthogonalLoop=1;jettySize=auto;html=1;labelBackgroundColor=none;fontColor=#EA6B66;noEdgeStyle=1;orthogonal=1;" edge="1" parent="1" source="33" target="28"><mxGeometry relative="1" as="geometry"><Array as="points"><mxPoint x="62" y="1436.6666666666667"/><mxPoint x="150" y="1400"/><mxPoint x="400" y="1400"/><mxPoint x="484" y="1672.9166666666667"/></Array></mxGeometry></mxCell><mxCell id="SearchResource|SearchMethod" value="" style="edgeStyle=orthogonalEdgeStyle;rounded=1;orthogonalLoop=1;jettySize=auto;html=1;labelBackgroundColor=none;fontColor=#EA6B66;noEdgeStyle=1;orthogonal=1;" edge="1" parent="1" source="33" target="32"><mxGeometry relative="1" as="geometry"><Array as="points"><mxPoint x="64" y="1450"/><mxPoint x="238" y="1475"/></Array></mxGeometry></mxCell><mxCell id="ApiGatewayAuthorizer|SearchMethod" value="" style="edgeStyle=orthogonalEdgeStyle;rounded=1;orthogonalLoop=1;jettySize=auto;html=1;labelBackgroundColor=none;fontColor=#EA6B66;noEdgeStyle=1;orthogonal=1;" edge="1" parent="1" source="33" target="29"><mxGeometry relative="1" as="geometry"><Array as="points"><mxPoint x="62" y="1463.3333333333333"/><mxPoint x="236" y="1567"/></Array></mxGeometry></mxCell><mxCell id="ApiGateway|StartTripResource" value="" style="edgeStyle=orthogonalEdgeStyle;rounded=1;orthogonalLoop=1;jettySize=auto;html=1;labelBackgroundColor=none;fontColor=#EA6B66;noEdgeStyle=1;orthogonal=1;" edge="1" parent="1" source="34" target="28"><mxGeometry relative="1" as="geometry"><Array as="points"><mxPoint x="312" y="1725"/><mxPoint x="478" y="1689.5833333333337"/></Array></mxGeometry></mxCell><mxCell id="ApiGateway|StartTripMethod" value="" style="edgeStyle=orthogonalEdgeStyle;rounded=1;orthogonalLoop=1;jettySize=auto;html=1;labelBackgroundColor=none;fontColor=#EA6B66;noEdgeStyle=1;orthogonal=1;" edge="1" parent="1" source="35" target="28"><mxGeometry relative="1" as="geometry"><Array as="points"><mxPoint x="64" y="1550"/><mxPoint x="150" y="1650"/><mxPoint x="400" y="1650"/><mxPoint x="478" y="1685.416666666667"/></Array></mxGeometry></mxCell><mxCell id="StartTripResource|StartTripMethod" value="" style="edgeStyle=orthogonalEdgeStyle;rounded=1;orthogonalLoop=1;jettySize=auto;html=1;labelBackgroundColor=none;fontColor=#EA6B66;noEdgeStyle=1;orthogonal=1;" edge="1" parent="1" source="35" target="34"><mxGeometry relative="1" as="geometry"><Array as="points"><mxPoint x="62" y="1563.3333333333333"/><mxPoint x="238" y="1725"/></Array></mxGeometry></mxCell><mxCell id="ApiGatewayAuthorizer|StartTripMethod" value="" style="edgeStyle=orthogonalEdgeStyle;rounded=1;orthogonalLoop=1;jettySize=auto;html=1;labelBackgroundColor=none;fontColor=#EA6B66;noEdgeStyle=1;orthogonal=1;" edge="1" parent="1" source="35" target="29"><mxGeometry relative="1" as="geometry"><Array as="points"><mxPoint x="62" y="1536.6666666666667"/><mxPoint x="234" y="1575"/></Array></mxGeometry></mxCell><mxCell id="ApiGateway|EndTripResource" value="" style="edgeStyle=orthogonalEdgeStyle;rounded=1;orthogonalLoop=1;jettySize=auto;html=1;labelBackgroundColor=none;fontColor=#EA6B66;noEdgeStyle=1;orthogonal=1;" edge="1" parent="1" source="36" target="28"><mxGeometry relative="1" as="geometry"><Array as="points"><mxPoint x="312" y="1875"/><mxPoint x="482" y="1697.9166666666672"/></Array></mxGeometry></mxCell><mxCell id="ApiGateway|EndTripMethod" value="" style="edgeStyle=orthogonalEdgeStyle;rounded=1;orthogonalLoop=1;jettySize=auto;html=1;labelBackgroundColor=none;fontColor=#EA6B66;noEdgeStyle=1;orthogonal=1;" edge="1" parent="1" source="37" target="28"><mxGeometry relative="1" as="geometry"><Array as="points"><mxPoint x="64" y="1650"/><mxPoint x="150" y="1800"/><mxPoint x="400" y="1800"/><mxPoint x="480" y="1693.7500000000005"/></Array></mxGeometry></mxCell><mxCell id="EndTripResource|EndTripMethod" value="" style="edgeStyle=orthogonalEdgeStyle;rounded=1;orthogonalLoop=1;jettySize=auto;html=1;labelBackgroundColor=none;fontColor=#EA6B66;noEdgeStyle=1;orthogonal=1;" edge="1" parent="1" source="37" target="36"><mxGeometry relative="1" as="geometry"><Array as="points"><mxPoint x="62" y="1663.3333333333333"/><mxPoint x="238" y="1875"/></Array></mxGeometry></mxCell><mxCell id="ApiGatewayAuthorizer|EndTripMethod" value="" style="edgeStyle=orthogonalEdgeStyle;rounded=1;orthogonalLoop=1;jettySize=auto;html=1;labelBackgroundColor=none;fontColor=#EA6B66;noEdgeStyle=1;orthogonal=1;" edge="1" parent="1" source="37" target="29"><mxGeometry relative="1" as="geometry"><Array as="points"><mxPoint x="62" y="1636.6666666666667"/><mxPoint x="236" y="1583"/></Array></mxGeometry></mxCell><mxCell id="ApiGateway|LeaderboardResource" value="" style="edgeStyle=orthogonalEdgeStyle;rounded=1;orthogonalLoop=1;jettySize=auto;html=1;labelBackgroundColor=none;fontColor=#EA6B66;noEdgeStyle=1;orthogonal=1;" edge="1" parent="1" source="38" target="28"><mxGeometry relative="1" as="geometry"><Array as="points"><mxPoint x="312" y="2025"/><mxPoint x="486" y="1706.2500000000007"/></Array></mxGeometry></mxCell><mxCell id="ApiGateway|LeaderboardMethod" value="" style="edgeStyle=orthogonalEdgeStyle;rounded=1;orthogonalLoop=1;jettySize=auto;html=1;labelBackgroundColor=none;fontColor=#EA6B66;noEdgeStyle=1;orthogonal=1;" edge="1" parent="1" source="39" target="28"><mxGeometry relative="1" as="geometry"><Array as="points"><mxPoint x="64" y="1950"/><mxPoint x="150" y="1950"/><mxPoint x="400" y="1950"/><mxPoint x="484" y="1702.083333333334"/></Array></mxGeometry></mxCell><mxCell id="LeaderboardResource|LeaderboardMethod" value="" style="edgeStyle=orthogonalEdgeStyle;rounded=1;orthogonalLoop=1;jettySize=auto;html=1;labelBackgroundColor=none;fontColor=#EA6B66;noEdgeStyle=1;orthogonal=1;" edge="1" parent="1" source="39" target="38"><mxGeometry relative="1" as="geometry"><Array as="points"><mxPoint x="62" y="1963.3333333333333"/><mxPoint x="238" y="2025"/></Array></mxGeometry></mxCell><mxCell id="ApiGatewayAuthorizer|LeaderboardMethod" value="" style="edgeStyle=orthogonalEdgeStyle;rounded=1;orthogonalLoop=1;jettySize=auto;html=1;labelBackgroundColor=none;fontColor=#EA6B66;noEdgeStyle=1;orthogonal=1;" edge="1" parent="1" source="39" target="29"><mxGeometry relative="1" as="geometry"><Array as="points"><mxPoint x="62" y="1936.6666666666667"/><mxPoint x="238" y="1591"/></Array></mxGeometry></mxCell><mxCell id="ApiGateway|ApiGatewayDeployment" value="" style="edgeStyle=orthogonalEdgeStyle;rounded=1;orthogonalLoop=1;jettySize=auto;html=1;labelBackgroundColor=none;fontColor=#EA6B66;noEdgeStyle=1;orthogonal=1;" edge="1" parent="1" source="40" target="28"><mxGeometry relative="1" as="geometry"><Array as="points"><mxPoint x="312" y="2125"/><mxPoint x="488" y="1710.4166666666674"/></Array></mxGeometry></mxCell><mxCell id="41" value="ApiStack" style="outlineConnect=0;fontColor=#B3B3B3;gradientColor=#F34482;gradientDirection=north;fillColor=#BC1356;strokeColor=#ffffff;dashed=0;verticalLabelPosition=bottom;verticalAlign=top;align=center;html=1;fontSize=12;fontStyle=0;aspect=fixed;shape=mxgraph.aws4.resourceIcon;resIcon=mxgraph.aws4.cloudformation;" vertex="1" parent="1"><mxGeometry y="2825" width="50" height="50" as="geometry"/></mxCell><mxCell id="42" value="iam  aws&#xA;policy/service-role/awslambdavpcaccessexecutionrole" style="outlineConnect=0;fontColor=#B3B3B3;gradientColor=#aaaaaa;gradientDirection=north;fillColor=#aaaaaa;strokeColor=#ffffff;dashed=0;verticalLabelPosition=bottom;verticalAlign=top;align=center;html=1;fontSize=12;fontStyle=0;aspect=fixed;shape=mxgraph.aws4.resourceIcon;resIcon=mxgraph.aws4.identity_and_access_management;" vertex="1" parent="1"><mxGeometry x="500" y="2250" width="50" height="50" as="geometry"/></mxCell><mxCell id="43" value="rds-db  &#xA;${documentdbcluster}/*" style="outlineConnect=0;fontColor=#B3B3B3;gradientColor=#aaaaaa;gradientDirection=north;fillColor=#aaaaaa;strokeColor=#ffffff;dashed=0;verticalLabelPosition=bottom;verticalAlign=top;align=center;html=1;fontSize=12;fontStyle=0;aspect=fixed;shape=mxgraph.aws4.resourceIcon;resIcon=mxgraph.aws4.rds-db;" vertex="1" parent="1"><mxGeometry x="500" y="2350" width="50" height="50" as="geometry"/></mxCell><mxCell id="44" value="dynamodb  &#xA;table/fleet" style="outlineConnect=0;fontColor=#B3B3B3;gradientColor=#aaaaaa;gradientDirection=north;fillColor=#aaaaaa;strokeColor=#ffffff;dashed=0;verticalLabelPosition=bottom;verticalAlign=top;align=center;html=1;fontSize=12;fontStyle=0;aspect=fixed;shape=mxgraph.aws4.resourceIcon;resIcon=mxgraph.aws4.dynamodb;" vertex="1" parent="1"><mxGeometry x="500" y="2450" width="50" height="50" as="geometry"/></mxCell><mxCell id="45" value="dynamodb  &#xA;table/trip" style="outlineConnect=0;fontColor=#B3B3B3;gradientColor=#aaaaaa;gradientDirection=north;fillColor=#aaaaaa;strokeColor=#ffffff;dashed=0;verticalLabelPosition=bottom;verticalAlign=top;align=center;html=1;fontSize=12;fontStyle=0;aspect=fixed;shape=mxgraph.aws4.resourceIcon;resIcon=mxgraph.aws4.dynamodb;" vertex="1" parent="1"><mxGeometry x="500" y="2550" width="50" height="50" as="geometry"/></mxCell><mxCell id="46" value="dynamodb  &#xA;table/user" style="outlineConnect=0;fontColor=#B3B3B3;gradientColor=#aaaaaa;gradientDirection=north;fillColor=#aaaaaa;strokeColor=#ffffff;dashed=0;verticalLabelPosition=bottom;verticalAlign=top;align=center;html=1;fontSize=12;fontStyle=0;aspect=fixed;shape=mxgraph.aws4.resourceIcon;resIcon=mxgraph.aws4.dynamodb;" vertex="1" parent="1"><mxGeometry x="500" y="2650" width="50" height="50" as="geometry"/></mxCell><mxCell id="47" value="dynamodb  &#xA;table/fleet/stream/*" style="outlineConnect=0;fontColor=#B3B3B3;gradientColor=#aaaaaa;gradientDirection=north;fillColor=#aaaaaa;strokeColor=#ffffff;dashed=0;verticalLabelPosition=bottom;verticalAlign=top;align=center;html=1;fontSize=12;fontStyle=0;aspect=fixed;shape=mxgraph.aws4.resourceIcon;resIcon=mxgraph.aws4.dynamodb;" vertex="1" parent="1"><mxGeometry x="500" y="2750" width="50" height="50" as="geometry"/></mxCell><mxCell id="48" value="dynamodb  &#xA;table/trip/stream/*" style="outlineConnect=0;fontColor=#B3B3B3;gradientColor=#aaaaaa;gradientDirection=north;fillColor=#aaaaaa;strokeColor=#ffffff;dashed=0;verticalLabelPosition=bottom;verticalAlign=top;align=center;html=1;fontSize=12;fontStyle=0;aspect=fixed;shape=mxgraph.aws4.resourceIcon;resIcon=mxgraph.aws4.dynamodb;" vertex="1" parent="1"><mxGeometry x="500" y="2850" width="50" height="50" as="geometry"/></mxCell><mxCell id="49" value="logs * *&#xA;*" style="outlineConnect=0;fontColor=#B3B3B3;gradientColor=#aaaaaa;gradientDirection=north;fillColor=#aaaaaa;strokeColor=#ffffff;dashed=0;verticalLabelPosition=bottom;verticalAlign=top;align=center;html=1;fontSize=12;fontStyle=0;aspect=fixed;shape=mxgraph.aws4.resourceIcon;resIcon=mxgraph.aws4.cloudwatch;" vertex="1" parent="1"><mxGeometry x="500" y="2950" width="50" height="50" as="geometry"/></mxCell><mxCell id="50" value="execute-api  &#xA;${apigatewayrestapi}/*/post/trip-operations" style="outlineConnect=0;fontColor=#B3B3B3;gradientColor=#aaaaaa;gradientDirection=north;fillColor=#aaaaaa;strokeColor=#ffffff;dashed=0;verticalLabelPosition=bottom;verticalAlign=top;align=center;html=1;fontSize=12;fontStyle=0;aspect=fixed;shape=mxgraph.aws4.resourceIcon;resIcon=mxgraph.aws4.execute-api;" vertex="1" parent="1"><mxGeometry x="500" y="3050" width="50" height="50" as="geometry"/></mxCell><mxCell id="51" value="execute-api  &#xA;${apigatewayrestapi}/*/*/*" style="outlineConnect=0;fontColor=#B3B3B3;gradientColor=#aaaaaa;gradientDirection=north;fillColor=#aaaaaa;strokeColor=#ffffff;dashed=0;verticalLabelPosition=bottom;verticalAlign=top;align=center;html=1;fontSize=12;fontStyle=0;aspect=fixed;shape=mxgraph.aws4.resourceIcon;resIcon=mxgraph.aws4.execute-api;" vertex="1" parent="1"><mxGeometry x="500" y="3150" width="50" height="50" as="geometry"/></mxCell><mxCell id="52" value="apigateway  lambda&#xA;path/2015-03-31/functions/${getuserprofilefunctionarn}/invocations" style="outlineConnect=0;fontColor=#B3B3B3;gradientColor=#aaaaaa;gradientDirection=north;fillColor=#aaaaaa;strokeColor=#ffffff;dashed=0;verticalLabelPosition=bottom;verticalAlign=top;align=center;html=1;fontSize=12;fontStyle=0;aspect=fixed;shape=mxgraph.aws4.resourceIcon;resIcon=mxgraph.aws4.apigateway;" vertex="1" parent="1"><mxGeometry x="250" y="2575" width="50" height="50" as="geometry"/></mxCell><mxCell id="53" value="apigateway  lambda&#xA;path/2015-03-31/functions/${searchscootersfunctionarn}/invocations" style="outlineConnect=0;fontColor=#B3B3B3;gradientColor=#aaaaaa;gradientDirection=north;fillColor=#aaaaaa;strokeColor=#ffffff;dashed=0;verticalLabelPosition=bottom;verticalAlign=top;align=center;html=1;fontSize=12;fontStyle=0;aspect=fixed;shape=mxgraph.aws4.resourceIcon;resIcon=mxgraph.aws4.apigateway;" vertex="1" parent="1"><mxGeometry x="250" y="2675" width="50" height="50" as="geometry"/></mxCell><mxCell id="54" value="apigateway  lambda&#xA;path/2015-03-31/functions/${starttripfunctionarn}/invocations" style="outlineConnect=0;fontColor=#B3B3B3;gradientColor=#aaaaaa;gradientDirection=north;fillColor=#aaaaaa;strokeColor=#ffffff;dashed=0;verticalLabelPosition=bottom;verticalAlign=top;align=center;html=1;fontSize=12;fontStyle=0;aspect=fixed;shape=mxgraph.aws4.resourceIcon;resIcon=mxgraph.aws4.apigateway;" vertex="1" parent="1"><mxGeometry x="250" y="2775" width="50" height="50" as="geometry"/></mxCell><mxCell id="55" value="apigateway  lambda&#xA;path/2015-03-31/functions/${endtripfunctionarn}/invocations" style="outlineConnect=0;fontColor=#B3B3B3;gradientColor=#aaaaaa;gradientDirection=north;fillColor=#aaaaaa;strokeColor=#ffffff;dashed=0;verticalLabelPosition=bottom;verticalAlign=top;align=center;html=1;fontSize=12;fontStyle=0;aspect=fixed;shape=mxgraph.aws4.resourceIcon;resIcon=mxgraph.aws4.apigateway;" vertex="1" parent="1"><mxGeometry x="250" y="2875" width="50" height="50" as="geometry"/></mxCell><mxCell id="56" value="apigateway  lambda&#xA;path/2015-03-31/functions/${getleaderboardfunctionarn}/invocations" style="outlineConnect=0;fontColor=#B3B3B3;gradientColor=#aaaaaa;gradientDirection=north;fillColor=#aaaaaa;strokeColor=#ffffff;dashed=0;verticalLabelPosition=bottom;verticalAlign=top;align=center;html=1;fontSize=12;fontStyle=0;aspect=fixed;shape=mxgraph.aws4.resourceIcon;resIcon=mxgraph.aws4.apigateway;" vertex="1" parent="1"><mxGeometry x="250" y="2975" width="50" height="50" as="geometry"/></mxCell><mxCell id="NetworkStack|DatabaseStack" value="" style="edgeStyle=orthogonalEdgeStyle;rounded=1;orthogonalLoop=1;jettySize=auto;html=1;labelBackgroundColor=none;fontColor=#EA6B66;noEdgeStyle=1;orthogonal=1;" edge="1" parent="1" source="16" target="8"><mxGeometry relative="1" as="geometry"><Array as="points"><mxPoint x="562" y="3325"/><mxPoint x="736" y="3325"/></Array></mxGeometry></mxCell><mxCell id="NetworkStack|CacheStack" value="" style="edgeStyle=orthogonalEdgeStyle;rounded=1;orthogonalLoop=1;jettySize=auto;html=1;labelBackgroundColor=none;fontColor=#EA6B66;noEdgeStyle=1;orthogonal=1;" edge="1" parent="1" source="21" target="8"><mxGeometry relative="1" as="geometry"><Array as="points"><mxPoint x="562" y="3425"/><mxPoint x="738" y="3338.3333333333335"/></Array></mxGeometry></mxCell><mxCell id="iam  aws&#xA;policy/service-role/awslambdavpcaccessexecutionrole|LambdaStack" value="" style="edgeStyle=orthogonalEdgeStyle;rounded=1;orthogonalLoop=1;jettySize=auto;html=1;labelBackgroundColor=none;fontColor=#EA6B66;noEdgeStyle=1;orthogonal=1;" edge="1" parent="1" source="23" target="42"><mxGeometry relative="1" as="geometry"><Array as="points"><mxPoint x="312" y="3076.923076923077"/><mxPoint x="488" y="2275"/></Array></mxGeometry></mxCell><mxCell id="rds-db  &#xA;${documentdbcluster}/*|LambdaStack" value="" style="edgeStyle=orthogonalEdgeStyle;rounded=1;orthogonalLoop=1;jettySize=auto;html=1;labelBackgroundColor=none;fontColor=#EA6B66;noEdgeStyle=1;orthogonal=1;" edge="1" parent="1" source="23" target="43"><mxGeometry relative="1" as="geometry"><Array as="points"><mxPoint x="314" y="3080.769230769231"/><mxPoint x="488" y="2375"/></Array></mxGeometry></mxCell><mxCell id="dynamodb  &#xA;table/fleet|LambdaStack" value="" style="edgeStyle=orthogonalEdgeStyle;rounded=1;orthogonalLoop=1;jettySize=auto;html=1;labelBackgroundColor=none;fontColor=#EA6B66;noEdgeStyle=1;orthogonal=1;" edge="1" parent="1" source="23" target="44"><mxGeometry relative="1" as="geometry"><Array as="points"><mxPoint x="316" y="3084.6153846153848"/><mxPoint x="488" y="2475"/></Array></mxGeometry></mxCell><mxCell id="dynamodb  &#xA;table/trip|LambdaStack" value="" style="edgeStyle=orthogonalEdgeStyle;rounded=1;orthogonalLoop=1;jettySize=auto;html=1;labelBackgroundColor=none;fontColor=#EA6B66;noEdgeStyle=1;orthogonal=1;" edge="1" parent="1" source="23" target="45"><mxGeometry relative="1" as="geometry"><Array as="points"><mxPoint x="318" y="3088.4615384615386"/><mxPoint x="488" y="2575"/></Array></mxGeometry></mxCell><mxCell id="dynamodb  &#xA;table/user|LambdaStack" value="" style="edgeStyle=orthogonalEdgeStyle;rounded=1;orthogonalLoop=1;jettySize=auto;html=1;labelBackgroundColor=none;fontColor=#EA6B66;noEdgeStyle=1;orthogonal=1;" edge="1" parent="1" source="23" target="46"><mxGeometry relative="1" as="geometry"><Array as="points"><mxPoint x="320" y="3092.3076923076924"/><mxPoint x="488" y="2675"/></Array></mxGeometry></mxCell><mxCell id="dynamodb  &#xA;table/fleet/stream/*|LambdaStack" value="" style="edgeStyle=orthogonalEdgeStyle;rounded=1;orthogonalLoop=1;jettySize=auto;html=1;labelBackgroundColor=none;fontColor=#EA6B66;noEdgeStyle=1;orthogonal=1;" edge="1" parent="1" source="23" target="47"><mxGeometry relative="1" as="geometry"><Array as="points"><mxPoint x="322" y="3096.153846153846"/><mxPoint x="488" y="2775"/></Array></mxGeometry></mxCell><mxCell id="dynamodb  &#xA;table/trip/stream/*|LambdaStack" value="" style="edgeStyle=orthogonalEdgeStyle;rounded=1;orthogonalLoop=1;jettySize=auto;html=1;labelBackgroundColor=none;fontColor=#EA6B66;noEdgeStyle=1;orthogonal=1;" edge="1" parent="1" source="23" target="48"><mxGeometry relative="1" as="geometry"><Array as="points"><mxPoint x="324" y="3100"/><mxPoint x="488" y="2875"/></Array></mxGeometry></mxCell><mxCell id="logs * *&#xA;*|LambdaStack" value="" style="edgeStyle=orthogonalEdgeStyle;rounded=1;orthogonalLoop=1;jettySize=auto;html=1;labelBackgroundColor=none;fontColor=#EA6B66;noEdgeStyle=1;orthogonal=1;" edge="1" parent="1" source="23" target="49"><mxGeometry relative="1" as="geometry"><Array as="points"><mxPoint x="322" y="3103.846153846154"/><mxPoint x="488" y="2975"/></Array></mxGeometry></mxCell><mxCell id="execute-api  &#xA;${apigatewayrestapi}/*/post/trip-operations|LambdaStack" value="" style="edgeStyle=orthogonalEdgeStyle;rounded=1;orthogonalLoop=1;jettySize=auto;html=1;labelBackgroundColor=none;fontColor=#EA6B66;noEdgeStyle=1;orthogonal=1;" edge="1" parent="1" source="23" target="50"><mxGeometry relative="1" as="geometry"><Array as="points"><mxPoint x="320" y="3107.6923076923076"/><mxPoint x="488" y="3075"/></Array></mxGeometry></mxCell><mxCell id="execute-api  &#xA;${apigatewayrestapi}/*/*/*|LambdaStack" value="" style="edgeStyle=orthogonalEdgeStyle;rounded=1;orthogonalLoop=1;jettySize=auto;html=1;labelBackgroundColor=none;fontColor=#EA6B66;noEdgeStyle=1;orthogonal=1;" edge="1" parent="1" source="23" target="51"><mxGeometry relative="1" as="geometry"><Array as="points"><mxPoint x="318" y="3111.5384615384614"/><mxPoint x="488" y="3175"/></Array></mxGeometry></mxCell><mxCell id="NetworkStack|LambdaStack" value="" style="edgeStyle=orthogonalEdgeStyle;rounded=1;orthogonalLoop=1;jettySize=auto;html=1;labelBackgroundColor=none;fontColor=#EA6B66;noEdgeStyle=1;orthogonal=1;" edge="1" parent="1" source="23" target="8"><mxGeometry relative="1" as="geometry"><Array as="points"><mxPoint x="316" y="3115.3846153846152"/><mxPoint x="400" y="3250"/><mxPoint x="650" y="3250"/><mxPoint x="738" y="3311.6666666666665"/></Array></mxGeometry></mxCell><mxCell id="DatabaseStack|LambdaStack" value="" style="edgeStyle=orthogonalEdgeStyle;rounded=1;orthogonalLoop=1;jettySize=auto;html=1;labelBackgroundColor=none;fontColor=#EA6B66;noEdgeStyle=1;orthogonal=1;" edge="1" parent="1" source="23" target="16"><mxGeometry relative="1" as="geometry"><Array as="points"><mxPoint x="314" y="3119.230769230769"/><mxPoint x="488" y="3325"/></Array></mxGeometry></mxCell><mxCell id="CacheStack|LambdaStack" value="" style="edgeStyle=orthogonalEdgeStyle;rounded=1;orthogonalLoop=1;jettySize=auto;html=1;labelBackgroundColor=none;fontColor=#EA6B66;noEdgeStyle=1;orthogonal=1;" edge="1" parent="1" source="23" target="21"><mxGeometry relative="1" as="geometry"><Array as="points"><mxPoint x="312" y="3123.076923076923"/><mxPoint x="488" y="3425"/></Array></mxGeometry></mxCell><mxCell id="apigateway  lambda&#xA;path/2015-03-31/functions/${getuserprofilefunctionarn}/invocations|ApiStack" value="" style="edgeStyle=orthogonalEdgeStyle;rounded=1;orthogonalLoop=1;jettySize=auto;html=1;labelBackgroundColor=none;fontColor=#EA6B66;noEdgeStyle=1;orthogonal=1;" edge="1" parent="1" source="41" target="52"><mxGeometry relative="1" as="geometry"><Array as="points"><mxPoint x="62" y="2833.3333333333335"/><mxPoint x="238" y="2600"/></Array></mxGeometry></mxCell><mxCell id="apigateway  lambda&#xA;path/2015-03-31/functions/${searchscootersfunctionarn}/invocations|ApiStack" value="" style="edgeStyle=orthogonalEdgeStyle;rounded=1;orthogonalLoop=1;jettySize=auto;html=1;labelBackgroundColor=none;fontColor=#EA6B66;noEdgeStyle=1;orthogonal=1;" edge="1" parent="1" source="41" target="53"><mxGeometry relative="1" as="geometry"><Array as="points"><mxPoint x="64" y="2840"/><mxPoint x="238" y="2700"/></Array></mxGeometry></mxCell><mxCell id="apigateway  lambda&#xA;path/2015-03-31/functions/${starttripfunctionarn}/invocations|ApiStack" value="" style="edgeStyle=orthogonalEdgeStyle;rounded=1;orthogonalLoop=1;jettySize=auto;html=1;labelBackgroundColor=none;fontColor=#EA6B66;noEdgeStyle=1;orthogonal=1;" edge="1" parent="1" source="41" target="54"><mxGeometry relative="1" as="geometry"><Array as="points"><mxPoint x="66" y="2846.6666666666665"/><mxPoint x="238" y="2800"/></Array></mxGeometry></mxCell><mxCell id="apigateway  lambda&#xA;path/2015-03-31/functions/${endtripfunctionarn}/invocations|ApiStack" value="" style="edgeStyle=orthogonalEdgeStyle;rounded=1;orthogonalLoop=1;jettySize=auto;html=1;labelBackgroundColor=none;fontColor=#EA6B66;noEdgeStyle=1;orthogonal=1;" edge="1" parent="1" source="41" target="55"><mxGeometry relative="1" as="geometry"><Array as="points"><mxPoint x="66" y="2853.333333333333"/><mxPoint x="238" y="2900"/></Array></mxGeometry></mxCell><mxCell id="apigateway  lambda&#xA;path/2015-03-31/functions/${getleaderboardfunctionarn}/invocations|ApiStack" value="" style="edgeStyle=orthogonalEdgeStyle;rounded=1;orthogonalLoop=1;jettySize=auto;html=1;labelBackgroundColor=none;fontColor=#EA6B66;noEdgeStyle=1;orthogonal=1;" edge="1" parent="1" source="41" target="56"><mxGeometry relative="1" as="geometry"><Array as="points"><mxPoint x="64" y="2859.9999999999995"/><mxPoint x="238" y="3000"/></Array></mxGeometry></mxCell><mxCell id="LambdaStack|ApiStack" value="" style="edgeStyle=orthogonalEdgeStyle;rounded=1;orthogonalLoop=1;jettySize=auto;html=1;labelBackgroundColor=none;fontColor=#EA6B66;noEdgeStyle=1;orthogonal=1;" edge="1" parent="1" source="41" target="23"><mxGeometry relative="1" as="geometry"><Array as="points"><mxPoint x="62" y="2866.666666666666"/><mxPoint x="238" y="3100"/></Array></mxGeometry></mxCell></root></mxGraphModel>
            </diagram>
          </mxfile>